<svg width="200" height="28" viewBox="0 0 200 28" fill="none" xmlns="http://www.w3.org/2000/svg">
<g clip-path="url(#clip0_13_2)">
<path d="M72.5317 8.27211L68.1194 21.4054L63.7421 8.27211H58.0097L65.2314 27.3441L65.3155 27.5665H70.9218L78.1895 8.27211H72.5317ZM29.3804 1.8048L38.3639 27.5665H32.5737L30.8761 22.5449H21.3625L19.6646 27.5665H13.8749L22.8586 1.8048H29.3804ZM26.1012 8.52817L23.0772 17.4128H29.1248L26.1012 8.52817ZM51.5164 9.63291C50.0595 8.48125 48.288 7.87436 46.369 7.87436C41.2129 7.87436 37.1735 12.2948 37.1735 17.9372C37.1735 23.5597 41.2129 27.9641 46.369 27.9641C48.3922 27.9641 50.2383 27.2956 51.7332 26.0264V27.5665H56.9737V-0.00154583H51.5164V9.63291ZM47.0915 22.868C44.6105 22.868 42.6666 20.7181 42.6666 17.9736C42.6666 15.1681 44.6105 12.9705 47.0915 12.9705C49.5316 12.9705 51.5164 15.2148 51.5164 17.9736C51.5164 20.6724 49.5316 22.868 47.0915 22.868ZM114.634 16.3473V27.5665H109.177V16.3473C109.177 15.3425 108.872 13.0064 106.052 13.0064C104.158 13.0064 102.784 14.4118 102.784 16.3473V27.5665H97.3262V8.27211H102.567V9.56245C103.803 8.40912 105.337 7.80239 107.028 7.80239C111.577 7.80239 114.634 11.2366 114.634 16.3473ZM199.085 7.11596V3.72434H181.842V27.575H199.085V24.1503H185.367V16.8279H197.75V13.4365H185.367V7.11596H199.085ZM175.268 3.72434H178.759V27.575H175.268V16.7947H163.273V27.575H159.748V3.72434H163.273V13.3699H175.268V3.72434ZM95.6474 27.1087C95.4001 26.4028 95.1247 25.0296 95.1247 24.1874V14.505C95.1247 12.9327 94.5135 7.80239 86.6517 7.80239C81.7318 7.80239 78.0813 10.4049 77.5673 14.2794L77.5158 14.6686H82.9406L83.0092 14.4146C83.4019 12.9754 85.2286 12.32 86.7599 12.32C88.5283 12.32 89.812 12.9202 89.812 13.7464C89.812 15.0019 87.4479 15.3263 84.8152 15.5713C80.8904 15.9153 76.8781 16.8945 76.8781 21.5497C76.8781 25.9554 80.8433 27.9277 84.7728 27.9277C87.0639 27.9277 88.9076 27.3386 90.2586 26.1755C90.3613 26.6482 90.4838 27.0316 90.6387 27.3668L90.7311 27.5665H95.8071L95.6474 27.1087ZM89.9927 18.8449V19.9967C89.9927 22.7182 86.6204 23.0124 85.1703 23.0124C83.4962 23.0124 82.3711 22.4391 82.3711 21.5866C82.3711 20.5822 83.3813 20.0632 85.8587 19.7965C87.7682 19.5841 89.0626 19.2875 89.9927 18.8449ZM153.214 10.8353C155.235 13.0533 156.122 16.1569 155.782 19.8117L155.753 20.1236H141.854C142.523 21.9786 144.11 23.1203 146.046 23.1203C147.439 23.1203 148.659 22.5495 149.395 21.5541L149.447 21.4836H155.374L155.301 21.7089C154.045 25.5893 150.513 28 146.082 28C140.633 28 136.2 23.4861 136.2 17.9372C136.2 12.3485 140.633 7.80239 146.082 7.80239C148.899 7.80239 151.432 8.87911 153.214 10.8353ZM141.949 15.5337H150.238C149.589 13.7678 148.004 12.6812 146.046 12.6812C144.229 12.6812 142.679 13.7673 141.949 15.5337ZM129.549 20.7888C128.941 22.0769 127.465 22.9763 125.959 22.9763C123.519 22.9763 121.534 20.732 121.534 17.9733C121.534 15.1549 123.519 12.8623 125.959 12.8623C127.65 12.8623 128.965 13.9477 129.518 15.0241L129.615 15.2102H135.363L135.252 14.7802C134.139 10.4758 130.578 7.80239 125.959 7.80239C120.284 7.80239 116.004 12.1595 116.004 17.9372C116.004 23.6742 120.284 28 125.959 28C130.68 28 134.168 25.3911 135.288 21.021L135.398 20.5914H129.642L129.549 20.7888Z" fill="#323E48"/>
<path d="M17.9748 5.34642C17.9748 2.86478 15.9628 0.852868 13.481 0.852868C12.1147 0.852868 10.8909 1.46296 10.0667 2.42542C10.525 3.29856 10.785 4.29201 10.785 5.34642C10.785 6.40103 10.525 7.3946 10.0667 8.26758C10.8909 9.2302 12.1147 9.84033 13.481 9.84033C15.9628 9.84033 17.9748 7.82837 17.9748 5.34642Z" fill="#4E4695"/>
<path d="M4.49375 9.84033C6.97539 9.84033 8.98746 7.82837 8.98746 5.34642C8.98746 2.86478 6.97539 0.852868 4.49375 0.852868C2.01194 0.852868 0 2.86478 0 5.34642C0 7.82837 2.01194 9.84033 4.49375 9.84033Z" fill="#52C4A6"/>
</g>
<defs>
<clipPath id="clip0_13_2">
<rect width="199.083" height="28" fill="white"/>
</clipPath>
</defs>
</svg>
